<svg xmlns="http://www.w3.org/2000/svg" width="210" height="210" fill="none"><path fill="#fff" d="M94.805 191.35l-7.579-1.177-.216 1.389 6.013.934-1.794 11.546 1.567.244 2.01-12.936zm-16.713-3.934c-1.901-.603-3.592-.093-4.479 1.181l1.266.831c.675-.859 1.676-1.078 2.803-.72 1.688.535 2.506 1.994 1.937 4.02l-6.793-2.154-.194.609c-1.105 3.485.588 5.337 2.538 5.955 2.534.804 4.85-.662 5.762-3.537.912-2.876-.135-5.327-2.84-6.185zm1.133 6.555c-.56 1.426-2 2.397-3.646 1.875-1.56-.495-2.188-1.981-1.685-3.565l5.331 1.69zM66.951 182.88c-1.535-.761-2.745-.334-3.304.103l-.069-.034.59-1.191-1.351-.67-2.872 5.796c-1.385 2.795.586 4.171 1.709 4.728 1.329.658 3.068.949 4.55-.314l-1.056-1.094c-.616.494-1.66.832-2.95.194-1.242-.616-1.529-1.578-.97-2.707l.023-.046c.323-.653.96-.266 2.665.322 1.738.597 3.698 1.119 4.697-.897.851-1.718.01-3.362-1.662-4.19zm-.808 1.112c1.077.533 1.617 1.4 1.152 2.34-.51 1.031-1.609.886-2.731.501-.607-.215-2.221-.815-2.587-.654l.614-1.237c.544-1.1 1.949-1.745 3.552-.95zm-8.436-6.053l-1.25-.844-3.477 5.149c-.744 1.102-2.156 1.32-3.343.519a4.556 4.556 0 0 1-.705-.6l-.859 1.272c.136.107.457.339.643.465.975.658 2.194.679 3.035.074l.084.057-.83 1.229 1.208.816 5.494-8.137zM44.64 175.55c-1.139 1.279-2.578 1.298-3.656.338-1.045-.932-1.072-2.18-.047-3.33l4.081-4.582-1.126-1.003-4.15 4.658c-1.667 1.871-1.468 3.657.016 4.979 1.107.987 2.237 1.103 3.244.664l.095.085-1.02 1.146 1.088.969 6.53-7.331-1.126-1.003-3.928 4.41zm-10.299-19.593l-.803-1.277-5.195 3.265c-1.218.765-2.636.419-3.262-.577-.609-.969-.4-2.043.546-2.639l5.694-3.577-.816-1.299-5.412 3.401c-1.072.673-2.284.499-3.019-.671-.571-.909-.58-1.991.65-2.763l5.563-3.496-.802-1.277-5.564 3.496c-1.954 1.228-2.198 2.846-1.266 4.329.748 1.19 1.842 1.718 2.971 1.605l.055.086c-.63.97-.693 2.021-.006 3.115.68 1.082 1.703 1.556 2.808 1.345l.068.108-1.298.817.775 1.233 8.313-5.224zm-9.998-19.022c-.997-2.466-3.54-3.368-6.361-2.227-2.845 1.15-4.047 3.566-3.05 6.031.997 2.465 3.54 3.368 6.385 2.218 2.82-1.141 4.022-3.557 3.026-6.022zm-1.257.508c.757 1.872-.51 3.377-2.335 4.115-1.825.738-3.806.546-4.563-1.327-.757-1.872.534-3.387 2.36-4.125 1.824-.738 3.781-.536 4.538 1.337zm-1.935-9.332l-.373-1.462-6.02 1.539c-1.288.33-2.489-.445-2.843-1.832-.1-.39-.129-.812-.13-.917l-1.486.38c.03.17.117.557.172.774.291 1.139 1.189 1.966 2.219 2.072l.025.099-1.437.367.361 1.412 9.512-2.432zm-2.414-13.767c-.231-1.981-1.391-3.312-2.918-3.597l-.237 1.495c1.06.262 1.672 1.085 1.81 2.259.205 1.759-.79 3.105-2.87 3.419l-.828-7.079-.635.074c-3.632.426-4.623 2.73-4.386 4.761.31 2.641 2.597 4.15 5.594 3.799 2.996-.351 4.8-2.312 4.47-5.131zm-5.51 3.728c-1.53.076-3.007-.839-3.208-2.553-.19-1.625.907-2.809 2.558-3.003l.65 5.556zm5.213-22.207l1.082-7.593-1.392-.199-.859 6.025-11.567-1.65-.224 1.57 12.96 1.847zm3.725-16.762c.579-1.908.047-3.592-1.238-4.463l-.815 1.276c.868.664 1.099 1.663.756 2.794-.514 1.694-1.964 2.53-3.996 1.987l2.069-6.82-.612-.185c-3.499-1.062-5.329.654-5.923 2.611-.771 2.545.723 4.842 3.61 5.718 2.887.876 5.325-.202 6.149-2.918zm-6.541 1.216c-1.433-.542-2.422-1.97-1.92-3.622.474-1.566 1.953-2.213 3.543-1.73l-1.623 5.352zM26.56 67.907c.742-1.544.299-2.75-.145-3.303l.034-.069 1.198.575.653-1.36-5.832-2.799c-2.812-1.35-4.163.64-4.706 1.769-.641 1.337-.91 3.08.371 4.545l1.08-1.07c-.501-.609-.852-1.65-.23-2.946.6-1.25 1.559-1.549 2.694-1.004l.046.022c.657.315.279.956-.288 2.67-.575 1.744-1.073 3.71.956 4.684 1.729.83 3.362-.031 4.17-1.714zm-1.122-.794c-.52 1.083-1.38 1.635-2.325 1.181-1.037-.498-.907-1.598-.536-2.724.207-.61.787-2.232.621-2.595l1.245.597c1.107.532 1.77 1.927.995 3.541zm5.947-8.511l.828-1.26-5.192-3.413c-1.111-.73-1.348-2.14-.561-3.336.22-.337.513-.642.59-.713l-1.281-.843c-.106.137-.334.462-.457.649-.646.983-.652 2.202-.037 3.035l-.056.086-1.239-.815-.8 1.218 8.205 5.392zm2.225-13.096c-1.293-1.123-1.331-2.562-.384-3.652.918-1.057 2.166-1.1 3.329-.09l4.633 4.025.989-1.14-4.71-4.09c-1.892-1.643-3.675-1.423-4.979.078-.972 1.12-1.074 2.25-.623 3.252l-.084.096-1.158-1.006-.956 1.1 7.413 6.439.989-1.139-4.459-3.873zm19.461-10.544l1.267-.819-3.33-5.154c-.78-1.208-.451-2.63.537-3.27.961-.62 2.038-.425 2.645.514l3.649 5.648 1.288-.832-3.468-5.37c-.687-1.062-.528-2.276.632-3.025.902-.583 1.984-.605 2.771.614l3.566 5.52 1.267-.82-3.566-5.519c-1.252-1.938-2.873-2.162-4.344-1.211-1.18.763-1.695 1.864-1.568 2.991l-.086.056c-.976-.617-2.029-.668-3.113.033-1.074.694-1.536 1.723-1.31 2.825l-.108.07-.832-1.29-1.225.792 5.328 8.247zm18.896-10.237c2.453-1.027 3.323-3.582 2.148-6.388-1.186-2.83-3.617-4.001-6.07-2.974-2.452 1.028-3.323 3.582-2.137 6.412 1.176 2.806 3.607 3.978 6.06 2.95zm-.523-1.25c-1.863.781-3.384-.467-4.145-2.283-.76-1.816-.593-3.799 1.27-4.579 1.863-.78 3.393.491 4.154 2.307.76 1.816.584 3.775-1.28 4.555zm9.306-2.051l1.457-.392-1.614-6c-.346-1.284.414-2.494 1.797-2.866a4.51 4.51 0 0 1 .915-.14l-.399-1.482c-.17.032-.556.123-.772.181-1.135.306-1.95 1.213-2.043 2.245l-.099.026-.385-1.432-1.408.379 2.552 9.48zm13.736-2.587c1.978-.256 3.295-1.433 3.56-2.963l-1.498-.218c-.248 1.064-1.064 1.685-2.236 1.838-1.756.227-3.114-.75-3.454-2.827l7.067-.917-.082-.634c-.47-3.626-2.787-4.588-4.815-4.325-2.637.342-4.117 2.648-3.729 5.64.388 2.992 2.373 4.772 5.187 4.406zm-3.796-5.463c-.096-1.528.8-3.017 2.512-3.24 1.623-.21 2.82.872 3.034 2.52l-5.546.72zm22.27 4.934l7.606.987.181-1.394-6.034-.784 1.503-11.587-1.572-.204-1.684 12.982zm16.807 3.514c1.915.555 3.592.003 4.447-1.293l-1.286-.799c-.653.876-1.649 1.12-2.784.79-1.701-.492-2.555-1.93-2.038-3.97l6.846 1.983.178-.614c1.017-3.511-.721-5.32-2.686-5.889-2.554-.74-4.832.783-5.672 3.68-.839 2.899.269 5.322 2.995 6.112zm-1.298-6.525c.524-1.439 1.94-2.446 3.598-1.965 1.572.455 2.237 1.926 1.774 3.522l-5.372-1.557zm12.549 10.78c1.553.722 2.753.264 3.3-.186l.07.032-.56 1.206 1.368.636 2.726-5.867c1.314-2.828-.692-4.155-1.828-4.683-1.345-.625-3.091-.872-4.54.428l1.083 1.067c.603-.51 1.639-.874 2.943-.268 1.258.585 1.569 1.54 1.038 2.682l-.021.046c-.307.66-.953.29-2.673-.255-1.752-.553-3.724-1.026-4.672 1.015-.808 1.739.073 3.36 1.766 4.147zm.779-1.132c-1.089-.506-1.651-1.36-1.21-2.31.485-1.044 1.587-.926 2.718-.57.612.2 2.241.76 2.602.589l-.582 1.252c-.517 1.113-1.904 1.793-3.528 1.04zm8.585 5.84l1.271.813L155 26.363c.716-1.12 2.122-1.374 3.329-.603.339.217.648.505.72.582l.827-1.293a15.096 15.096 0 0 0-.654-.448c-.991-.634-2.211-.624-3.036.002l-.086-.056.799-1.25-1.228-.784-5.289 8.272zm13.123 2.061c1.107-1.308 2.545-1.363 3.647-.43 1.068.905 1.127 2.152.131 3.327l-3.966 4.683 1.152.975 4.031-4.76c1.62-1.913 1.377-3.694-.14-4.978-1.132-.959-2.264-1.046-3.26-.582l-.097-.083.991-1.17-1.112-.943-6.345 7.493 1.151.975 3.817-4.508zm10.788 19.327l.834 1.257 5.112-3.395c1.198-.795 2.625-.484 3.275.496.633.953.452 2.032-.48 2.651l-5.602 3.72.849 1.278 5.325-3.536c1.054-.7 2.27-.556 3.034.594.594.895.629 1.976-.58 2.779l-5.474 3.635.835 1.256 5.474-3.634c1.922-1.277 2.126-2.9 1.157-4.36-.778-1.17-1.885-1.671-3.011-1.53l-.057-.085c.605-.984.642-2.037-.072-3.113-.707-1.065-1.742-1.514-2.841-1.275l-.071-.106 1.278-.849-.806-1.214-8.179 5.431zm10.472 18.767c1.058 2.439 3.623 3.277 6.415 2.066 2.815-1.22 3.955-3.667 2.897-6.106-1.058-2.44-3.623-3.278-6.438-2.057-2.791 1.211-3.932 3.657-2.874 6.096zm1.243-.54c-.804-1.853.425-3.39 2.231-4.173 1.806-.783 3.791-.64 4.595 1.212.804 1.853-.448 3.4-2.255 4.183-1.806.784-3.767.631-4.571-1.222zm2.169 9.28l.41 1.452 5.979-1.69c1.279-.361 2.499.383 2.889 1.761.109.388.148.808.152.914l1.476-.417c-.035-.17-.13-.555-.191-.77-.32-1.132-1.238-1.935-2.27-2.015l-.028-.099 1.427-.403-.396-1.403-9.448 2.67zm2.758 13.702c.281 1.975 1.474 3.277 3.007 3.523l.2-1.5c-1.067-.236-1.699-1.043-1.865-2.214-.25-1.753.71-3.123 2.782-3.49l1.006 7.056.633-.09c3.619-.516 4.553-2.844 4.264-4.869-.375-2.633-2.7-4.083-5.686-3.657-2.987.425-4.742 2.432-4.341 5.241zm5.415-3.864c1.527-.115 3.027.763 3.271 2.471.231 1.62-.836 2.831-2.482 3.066l-.789-5.537zm-4.654 22.33l-.892 7.618 1.397.164.707-6.044 11.606 1.358.184-1.574-13.002-1.522zm-3.303 16.85c-.531 1.922.042 3.592 1.349 4.431l.782-1.296c-.883-.642-1.14-1.635-.825-2.775.471-1.706 1.899-2.579 3.945-2.086l-1.897 6.869.616.171c3.524.973 5.31-.788 5.855-2.76.708-2.563-.843-4.822-3.752-5.625-2.908-.803-5.318.335-6.073 3.071zm6.508-1.379c1.445.505 2.47 1.909 2.011 3.572-.436 1.578-1.898 2.261-3.5 1.819l1.489-5.391zm-10.622 12.682c-.702 1.563-.229 2.756.228 3.298l-.032.07-1.212-.545-.619 1.376 5.9 2.652c2.846 1.279 4.147-.743 4.661-1.886.607-1.352.833-3.101-.485-4.535l-1.053 1.097c.516.596.894 1.628.304 2.94-.569 1.265-1.52 1.587-2.668 1.071l-.047-.021c-.664-.299-.302-.949.222-2.675.531-1.759.979-3.737-1.074-4.66-1.749-.786-3.359.116-4.125 1.818zm1.142.766c.493-1.096 1.339-1.669 2.295-1.239 1.049.471.946 1.574.604 2.71-.192.614-.731 2.25-.556 2.609l-1.26-.566c-1.119-.503-1.817-1.882-1.083-3.514zm-5.732 8.657l-.796 1.281 5.276 3.281c1.129.702 1.401 2.105.645 3.321a4.655 4.655 0 0 1-.573.728l1.303.81c.102-.14.322-.47.44-.66.621-.999.596-2.218-.04-3.035l.054-.087 1.26.783.769-1.238-8.338-5.184zm-1.896 13.148c1.322 1.09 1.395 2.527.476 3.641-.892 1.08-2.138 1.153-3.326.173l-4.732-3.907-.96 1.163 4.811 3.972c1.932 1.595 3.709 1.33 4.975-.203.944-1.144 1.017-2.277.541-3.266l.082-.099 1.183.977.928-1.124-7.572-6.251-.96 1.164 4.554 3.76zm-19.19 11.029l-1.246.85 3.458 5.069c.81 1.188.517 2.618-.455 3.281-.945.645-2.026.477-2.657-.447l-3.789-5.555-1.268.865 3.603 5.28c.713 1.046.584 2.263-.557 3.042-.887.605-1.968.654-2.785-.545l-3.703-5.428-1.247.85 3.704 5.428c1.3 1.906 2.926 2.089 4.373 1.102 1.161-.792 1.648-1.906 1.492-3.03l.085-.057c.992.592 2.045.616 3.112-.112 1.056-.72 1.491-1.76 1.239-2.857l.105-.072.865 1.268 1.204-.822-5.533-8.11zm-18.634 10.707c-2.426 1.088-3.232 3.664-1.986 6.44 1.256 2.799 3.716 3.909 6.142 2.821 2.426-1.089 3.232-3.665 1.976-6.464-1.246-2.776-3.706-3.886-6.132-2.797zm.555 1.236c1.843-.827 3.394.382 4.201 2.179.806 1.796.688 3.782-1.155 4.609s-3.405-.406-4.211-2.202c-.806-1.796-.678-3.759 1.165-4.586zm-9.253 2.284l-1.446.429 1.765 5.957c.377 1.275-.352 2.504-1.725 2.911a4.59 4.59 0 0 1-.911.163l.435 1.471c.169-.037.553-.137.768-.2 1.127-.335 1.919-1.262 1.986-2.296l.098-.029.422 1.422 1.397-.414-2.789-9.414zm-13.666 2.931c-1.97.306-3.257 1.515-3.484 3.051l1.502.181c.222-1.07 1.022-1.712 2.19-1.893 1.75-.272 3.132.671 3.524 2.738l-7.042 1.095.098.631c.561 3.613 2.901 4.518 4.922 4.203 2.628-.408 4.049-2.75 3.586-5.732-.463-2.981-2.491-4.71-5.296-4.274zm3.933 5.366c.133 1.525-.725 3.036-2.431 3.301-1.617.252-2.841-.8-3.096-2.442l5.527-.859z"/></svg>