<svg xmlns="http://www.w3.org/2000/svg" xmlns:xlink="http://www.w3.org/1999/xlink" width="229" zoomAndPan="magnify" viewBox="0 0 171.75 46.499999" height="62" preserveAspectRatio="xMidYMid meet" version="1.0"><defs><g/><clipPath id="3fcb6a2802"><path d="M 153 18 L 170.710938 18 L 170.710938 36 L 153 36 Z M 153 18 " clip-rule="nonzero"/></clipPath></defs><g fill="#ffffff" fill-opacity="1"><g transform="translate(1.160581, 34.423193)"><g><path d="M 11.171875 -11.578125 L 11.140625 -11.265625 C 12.191406 -11.203125 13.195312 -11.066406 14.15625 -10.859375 C 15.113281 -10.648438 15.953125 -10.332031 16.671875 -9.90625 C 17.398438 -9.476562 17.960938 -8.894531 18.359375 -8.15625 C 18.753906 -7.425781 18.910156 -6.507812 18.828125 -5.40625 C 18.722656 -3.875 18.175781 -2.675781 17.1875 -1.8125 C 16.195312 -0.957031 14.878906 -0.359375 13.234375 -0.015625 C 11.585938 0.328125 9.722656 0.476562 7.640625 0.4375 C 5.554688 0.394531 3.363281 0.25 1.0625 0 L 2.734375 -21.34375 C 5.140625 -21.65625 7.34375 -21.78125 9.34375 -21.71875 C 11.34375 -21.65625 13.054688 -21.40625 14.484375 -20.96875 C 15.921875 -20.53125 17 -19.898438 17.71875 -19.078125 C 18.4375 -18.265625 18.734375 -17.265625 18.609375 -16.078125 C 18.484375 -14.984375 18.0625 -14.085938 17.34375 -13.390625 C 16.625 -12.691406 15.722656 -12.191406 14.640625 -11.890625 C 13.566406 -11.597656 12.410156 -11.492188 11.171875 -11.578125 Z M 11.828125 -16.828125 C 11.929688 -18.160156 11.804688 -19.082031 11.453125 -19.59375 C 11.097656 -20.113281 10.421875 -20.289062 9.421875 -20.125 L 8.796875 -12.171875 C 9.628906 -12.066406 10.25 -12.234375 10.65625 -12.671875 C 11.0625 -13.117188 11.34375 -13.710938 11.5 -14.453125 C 11.65625 -15.191406 11.765625 -15.984375 11.828125 -16.828125 Z M 11.390625 -5.34375 C 11.492188 -6.632812 11.503906 -7.675781 11.421875 -8.46875 C 11.335938 -9.269531 11.085938 -9.847656 10.671875 -10.203125 C 10.253906 -10.554688 9.59375 -10.710938 8.6875 -10.671875 L 7.96875 -1.40625 C 8.957031 -0.988281 9.75 -1.125 10.34375 -1.8125 C 10.9375 -2.507812 11.285156 -3.6875 11.390625 -5.34375 Z M 11.390625 -5.34375 "/></g></g></g><g fill="#ffffff" fill-opacity="1"><g transform="translate(20.682172, 34.423193)"><g><path d="M 8.859375 -16.203125 C 10.210938 -16.304688 11.679688 -16.238281 13.265625 -16 C 14.859375 -15.769531 16.296875 -15.445312 17.578125 -15.03125 L 16.640625 -3.609375 C 16.828125 -3.523438 17.066406 -3.484375 17.359375 -3.484375 C 17.648438 -3.484375 17.890625 -3.523438 18.078125 -3.609375 C 18.492188 -2.941406 18.660156 -2.335938 18.578125 -1.796875 C 18.492188 -1.265625 18.242188 -0.820312 17.828125 -0.46875 C 17.410156 -0.113281 16.894531 0.125 16.28125 0.25 C 15.675781 0.375 15.0625 0.363281 14.4375 0.21875 C 13.8125 0.0703125 13.226562 -0.226562 12.6875 -0.6875 C 12.15625 -1.144531 11.757812 -1.789062 11.5 -2.625 C 11.238281 -3.46875 11.191406 -4.519531 11.359375 -5.78125 L 11.046875 -5.78125 C 10.941406 -4.1875 10.734375 -2.9375 10.421875 -2.03125 C 10.109375 -1.132812 9.703125 -0.492188 9.203125 -0.109375 C 8.710938 0.273438 8.171875 0.503906 7.578125 0.578125 C 6.984375 0.648438 6.351562 0.644531 5.6875 0.5625 C 4.425781 0.414062 3.398438 -0.0546875 2.609375 -0.859375 C 1.828125 -1.671875 1.300781 -2.734375 1.03125 -4.046875 C 0.757812 -5.367188 0.738281 -6.851562 0.96875 -8.5 C 1.070312 -9.132812 1.25 -9.863281 1.5 -10.6875 C 1.757812 -11.507812 2.164062 -12.3125 2.71875 -13.09375 C 3.269531 -13.882812 4.039062 -14.566406 5.03125 -15.140625 C 6.03125 -15.722656 7.304688 -16.078125 8.859375 -16.203125 Z M 10.359375 -5.71875 L 11.421875 -15 C 10.503906 -15 9.773438 -14.488281 9.234375 -13.46875 C 8.703125 -12.457031 8.320312 -11.128906 8.09375 -9.484375 C 7.90625 -7.953125 7.832031 -6.757812 7.875 -5.90625 C 7.914062 -5.0625 8.023438 -4.472656 8.203125 -4.140625 C 8.378906 -3.804688 8.597656 -3.617188 8.859375 -3.578125 C 9.234375 -3.535156 9.550781 -3.640625 9.8125 -3.890625 C 10.070312 -4.140625 10.253906 -4.75 10.359375 -5.71875 Z M 10.359375 -5.71875 "/></g></g></g><g fill="#ffffff" fill-opacity="1"><g transform="translate(39.576053, 34.423193)"><g><path d="M 0.9375 0 L 2.515625 -21.96875 C 3.578125 -22.113281 4.585938 -22.132812 5.546875 -22.03125 C 6.515625 -21.925781 7.300781 -21.707031 7.90625 -21.375 C 8.519531 -21.039062 8.816406 -20.582031 8.796875 -20 L 8.1875 -11.921875 C 8.144531 -11.335938 8.039062 -10.769531 7.875 -10.21875 C 7.707031 -9.664062 7.425781 -9.210938 7.03125 -8.859375 L 7.03125 -8.53125 C 7.59375 -8.726562 8.125 -9.070312 8.625 -9.5625 C 9.132812 -10.050781 9.550781 -10.609375 9.875 -11.234375 C 10.195312 -11.859375 10.375 -12.460938 10.40625 -13.046875 C 10.4375 -13.640625 10.265625 -14.113281 9.890625 -14.46875 C 10.617188 -15.113281 11.414062 -15.535156 12.28125 -15.734375 C 13.15625 -15.941406 13.976562 -15.945312 14.75 -15.75 C 15.53125 -15.5625 16.144531 -15.21875 16.59375 -14.71875 C 17.039062 -14.21875 17.191406 -13.59375 17.046875 -12.84375 C 16.921875 -12.125 16.640625 -11.492188 16.203125 -10.953125 C 15.773438 -10.410156 15.285156 -9.957031 14.734375 -9.59375 C 14.179688 -9.226562 13.648438 -8.925781 13.140625 -8.6875 C 12.628906 -8.457031 12.222656 -8.289062 11.921875 -8.1875 L 11.921875 -8.0625 C 12.492188 -7.976562 12.960938 -7.804688 13.328125 -7.546875 C 13.691406 -7.285156 14.039062 -6.851562 14.375 -6.25 C 14.875 -5.28125 15.382812 -4.363281 15.90625 -3.5 C 16.4375 -2.632812 17.003906 -2.085938 17.609375 -1.859375 C 17.460938 -1.179688 17.140625 -0.632812 16.640625 -0.21875 C 16.140625 0.195312 15.546875 0.476562 14.859375 0.625 C 14.179688 0.769531 13.484375 0.773438 12.765625 0.640625 C 12.054688 0.503906 11.414062 0.21875 10.84375 -0.21875 C 10.269531 -0.65625 9.835938 -1.265625 9.546875 -2.046875 L 7.65625 -7.5 L 7.40625 -7.34375 C 7.570312 -6.738281 7.675781 -6.078125 7.71875 -5.359375 C 7.757812 -4.648438 7.75 -3.984375 7.6875 -3.359375 L 7.375 0 C 6.875 0.101562 6.253906 0.191406 5.515625 0.265625 C 4.785156 0.335938 4.023438 0.363281 3.234375 0.34375 C 2.441406 0.320312 1.675781 0.207031 0.9375 0 Z M 0.9375 0 "/></g></g></g><g fill="#ffffff" fill-opacity="1"><g transform="translate(57.214524, 34.423193)"><g><path d="M 9.828125 -16.234375 C 11.367188 -16.234375 12.722656 -16.023438 13.890625 -15.609375 C 15.066406 -15.203125 15.945312 -14.566406 16.53125 -13.703125 C 17.125 -12.835938 17.304688 -11.710938 17.078125 -10.328125 C 16.929688 -9.492188 16.535156 -8.800781 15.890625 -8.25 C 15.253906 -7.707031 14.460938 -7.3125 13.515625 -7.0625 C 12.578125 -6.8125 11.578125 -6.707031 10.515625 -6.75 C 9.453125 -6.789062 8.414062 -6.976562 7.40625 -7.3125 C 7.570312 -6.5625 7.921875 -5.945312 8.453125 -5.46875 C 8.992188 -5 9.742188 -4.691406 10.703125 -4.546875 C 11.535156 -4.398438 12.332031 -4.4375 13.09375 -4.65625 C 13.863281 -4.875 14.535156 -5.195312 15.109375 -5.625 C 15.691406 -6.0625 16.117188 -6.519531 16.390625 -7 C 16.640625 -5.832031 16.609375 -4.769531 16.296875 -3.8125 C 15.984375 -2.863281 15.441406 -2.050781 14.671875 -1.375 C 13.910156 -0.707031 12.988281 -0.210938 11.90625 0.109375 C 10.832031 0.429688 9.65625 0.5625 8.375 0.5 C 5.71875 0.351562 3.734375 -0.503906 2.421875 -2.078125 C 1.117188 -3.660156 0.570312 -5.800781 0.78125 -8.5 C 0.96875 -10.863281 1.832031 -12.742188 3.375 -14.140625 C 4.914062 -15.535156 7.066406 -16.234375 9.828125 -16.234375 Z M 10.203125 -15.0625 C 9.347656 -15 8.796875 -14.492188 8.546875 -13.546875 C 8.304688 -12.609375 8.113281 -11.117188 7.96875 -9.078125 C 7.945312 -8.671875 7.945312 -8.34375 7.96875 -8.09375 C 8.851562 -8.03125 9.476562 -8.203125 9.84375 -8.609375 C 10.207031 -9.023438 10.429688 -9.722656 10.515625 -10.703125 L 10.796875 -14.4375 C 10.816406 -14.726562 10.757812 -14.910156 10.625 -14.984375 C 10.488281 -15.054688 10.347656 -15.082031 10.203125 -15.0625 Z M 10.203125 -15.0625 "/></g></g></g><g fill="#ffffff" fill-opacity="1"><g transform="translate(74.696078, 34.423193)"><g><path d="M 14.21875 -16.265625 C 14.238281 -15.210938 14.160156 -14.15625 13.984375 -13.09375 C 13.804688 -12.039062 13.457031 -11.117188 12.9375 -10.328125 C 11.53125 -10.453125 10.503906 -10.492188 9.859375 -10.453125 C 9.210938 -10.410156 8.796875 -10.296875 8.609375 -10.109375 C 8.429688 -9.921875 8.320312 -9.660156 8.28125 -9.328125 L 7.53125 0 C 7.007812 0.101562 6.367188 0.191406 5.609375 0.265625 C 4.859375 0.335938 4.078125 0.363281 3.265625 0.34375 C 2.453125 0.320312 1.675781 0.207031 0.9375 0 L 2.171875 -16.046875 C 2.523438 -16.046875 3 -16.046875 3.59375 -16.046875 C 4.1875 -16.046875 4.785156 -15.976562 5.390625 -15.84375 C 6.003906 -15.71875 6.503906 -15.476562 6.890625 -15.125 C 7.273438 -14.769531 7.414062 -14.25 7.3125 -13.5625 C 7.25 -13.0625 7.1875 -12.507812 7.125 -11.90625 C 7.0625 -11.3125 7.03125 -10.742188 7.03125 -10.203125 L 7.34375 -10.171875 C 7.382812 -10.691406 7.441406 -11.25 7.515625 -11.84375 C 7.585938 -12.445312 7.734375 -13.039062 7.953125 -13.625 C 8.171875 -14.207031 8.515625 -14.71875 8.984375 -15.15625 C 9.460938 -15.601562 10.117188 -15.9375 10.953125 -16.15625 C 11.796875 -16.375 12.882812 -16.410156 14.21875 -16.265625 Z M 14.21875 -16.265625 "/></g></g></g><g fill="#ffffff" fill-opacity="1"><g transform="translate(88.6311, 34.423193)"><g><path d="M 6.9375 -16.140625 C 7.894531 -16.015625 8.9375 -15.890625 10.0625 -15.765625 C 11.195312 -15.648438 12.285156 -15.609375 13.328125 -15.640625 C 14.378906 -15.679688 15.234375 -15.835938 15.890625 -16.109375 L 16.765625 -15.46875 C 16.742188 -14.195312 16.613281 -13.148438 16.375 -12.328125 C 16.132812 -11.515625 15.695312 -10.710938 15.0625 -9.921875 C 14.207031 -8.828125 13.210938 -7.992188 12.078125 -7.421875 C 10.953125 -6.847656 9.8125 -6.425781 8.65625 -6.15625 C 7.507812 -5.882812 6.46875 -5.644531 5.53125 -5.4375 L 5.625 -5.25 C 5.957031 -5.195312 6.457031 -5.160156 7.125 -5.140625 C 7.789062 -5.117188 8.539062 -5.113281 9.375 -5.125 C 10.21875 -5.132812 11.066406 -5.164062 11.921875 -5.21875 C 12.785156 -5.28125 13.570312 -5.375 14.28125 -5.5 C 14.988281 -5.625 15.535156 -5.789062 15.921875 -6 C 16.085938 -5.582031 16.222656 -5.0625 16.328125 -4.4375 C 16.429688 -3.820312 16.441406 -3.191406 16.359375 -2.546875 C 16.273438 -1.910156 16.039062 -1.335938 15.65625 -0.828125 C 15.28125 -0.316406 14.710938 0.0625 13.953125 0.3125 C 13.191406 0.5625 12.171875 0.59375 10.890625 0.40625 C 10.179688 0.300781 9.382812 0.203125 8.5 0.109375 C 7.625 0.015625 6.742188 -0.046875 5.859375 -0.078125 C 4.984375 -0.109375 4.175781 -0.09375 3.4375 -0.03125 C 2.695312 0.03125 2.09375 0.164062 1.625 0.375 L 0.6875 -0.25 C 0.707031 -1.757812 0.851562 -2.984375 1.125 -3.921875 C 1.394531 -4.867188 1.910156 -5.789062 2.671875 -6.6875 C 3.210938 -7.332031 3.941406 -7.875 4.859375 -8.3125 C 5.785156 -8.757812 6.800781 -9.164062 7.90625 -9.53125 C 9.019531 -9.894531 10.140625 -10.253906 11.265625 -10.609375 L 11.203125 -10.828125 C 10.804688 -10.785156 10.269531 -10.757812 9.59375 -10.75 C 8.925781 -10.738281 8.203125 -10.71875 7.421875 -10.6875 C 6.640625 -10.65625 5.875 -10.613281 5.125 -10.5625 C 4.382812 -10.507812 3.726562 -10.425781 3.15625 -10.3125 C 2.582031 -10.195312 2.171875 -10.046875 1.921875 -9.859375 C 1.742188 -10.273438 1.601562 -10.785156 1.5 -11.390625 C 1.394531 -12.003906 1.382812 -12.625 1.46875 -13.25 C 1.550781 -13.875 1.78125 -14.4375 2.15625 -14.9375 C 2.539062 -15.445312 3.113281 -15.820312 3.875 -16.0625 C 4.632812 -16.300781 5.65625 -16.328125 6.9375 -16.140625 Z M 6.9375 -16.140625 "/></g></g></g><g fill="#ffffff" fill-opacity="1"><g transform="translate(105.673256, 34.423193)"><g/></g></g><g fill="#ff914d" fill-opacity="1"><g transform="translate(111.953625, 34.423193)"><g><path d="M 11.171875 -11.578125 L 11.140625 -11.265625 C 12.191406 -11.203125 13.195312 -11.066406 14.15625 -10.859375 C 15.113281 -10.648438 15.953125 -10.332031 16.671875 -9.90625 C 17.398438 -9.476562 17.960938 -8.894531 18.359375 -8.15625 C 18.753906 -7.425781 18.910156 -6.507812 18.828125 -5.40625 C 18.722656 -3.875 18.175781 -2.675781 17.1875 -1.8125 C 16.195312 -0.957031 14.878906 -0.359375 13.234375 -0.015625 C 11.585938 0.328125 9.722656 0.476562 7.640625 0.4375 C 5.554688 0.394531 3.363281 0.25 1.0625 0 L 2.734375 -21.34375 C 5.140625 -21.65625 7.34375 -21.78125 9.34375 -21.71875 C 11.34375 -21.65625 13.054688 -21.40625 14.484375 -20.96875 C 15.921875 -20.53125 17 -19.898438 17.71875 -19.078125 C 18.4375 -18.265625 18.734375 -17.265625 18.609375 -16.078125 C 18.484375 -14.984375 18.0625 -14.085938 17.34375 -13.390625 C 16.625 -12.691406 15.722656 -12.191406 14.640625 -11.890625 C 13.566406 -11.597656 12.410156 -11.492188 11.171875 -11.578125 Z M 11.828125 -16.828125 C 11.929688 -18.160156 11.804688 -19.082031 11.453125 -19.59375 C 11.097656 -20.113281 10.421875 -20.289062 9.421875 -20.125 L 8.796875 -12.171875 C 9.628906 -12.066406 10.25 -12.234375 10.65625 -12.671875 C 11.0625 -13.117188 11.34375 -13.710938 11.5 -14.453125 C 11.65625 -15.191406 11.765625 -15.984375 11.828125 -16.828125 Z M 11.390625 -5.34375 C 11.492188 -6.632812 11.503906 -7.675781 11.421875 -8.46875 C 11.335938 -9.269531 11.085938 -9.847656 10.671875 -10.203125 C 10.253906 -10.554688 9.59375 -10.710938 8.6875 -10.671875 L 7.96875 -1.40625 C 8.957031 -0.988281 9.75 -1.125 10.34375 -1.8125 C 10.9375 -2.507812 11.285156 -3.6875 11.390625 -5.34375 Z M 11.390625 -5.34375 "/></g></g></g><g fill="#ff914d" fill-opacity="1"><g transform="translate(131.475216, 34.423193)"><g><path d="M 5.9375 -22.4375 C 7.3125 -22.4375 8.285156 -22.25 8.859375 -21.875 C 9.441406 -21.5 9.691406 -20.894531 9.609375 -20.0625 C 9.523438 -19.21875 9.160156 -18.609375 8.515625 -18.234375 C 7.878906 -17.859375 6.875 -17.671875 5.5 -17.671875 C 4.113281 -17.671875 3.128906 -17.859375 2.546875 -18.234375 C 1.972656 -18.609375 1.734375 -19.21875 1.828125 -20.0625 C 1.910156 -20.894531 2.269531 -21.5 2.90625 -21.875 C 3.539062 -22.25 4.550781 -22.4375 5.9375 -22.4375 Z M 1.984375 -15.734375 L 6.53125 -15.828125 C 7.550781 -15.847656 8.210938 -15.71875 8.515625 -15.4375 C 8.828125 -15.164062 8.960938 -14.738281 8.921875 -14.15625 L 8.03125 -2.796875 C 8.007812 -2.335938 8.007812 -1.863281 8.03125 -1.375 C 8.050781 -0.894531 8.082031 -0.4375 8.125 0 C 7.664062 0.101562 7.03125 0.191406 6.21875 0.265625 C 5.414062 0.335938 4.5625 0.363281 3.65625 0.34375 C 2.75 0.320312 1.90625 0.207031 1.125 0 L 2.078125 -12.875 C 2.117188 -13.351562 2.125 -13.835938 2.09375 -14.328125 C 2.0625 -14.816406 2.023438 -15.285156 1.984375 -15.734375 Z M 1.984375 -15.734375 "/></g></g></g><g fill="#ff914d" fill-opacity="1"><g transform="translate(141.204621, 34.423193)"><g><path d="M 9.265625 -15.703125 L 12.25 -15.703125 C 12.414062 -15.234375 12.453125 -14.796875 12.359375 -14.390625 C 12.265625 -13.984375 12.054688 -13.6875 11.734375 -13.5 L 9.078125 -13.5 L 8.3125 -3.609375 C 8.738281 -3.523438 9.21875 -3.484375 9.75 -3.484375 C 10.28125 -3.484375 10.753906 -3.523438 11.171875 -3.609375 C 11.148438 -2.460938 10.921875 -1.585938 10.484375 -0.984375 C 10.046875 -0.390625 9.4375 0.0078125 8.65625 0.21875 C 7.882812 0.425781 6.96875 0.53125 5.90625 0.53125 C 4.5625 0.53125 3.523438 0.140625 2.796875 -0.640625 C 2.078125 -1.429688 1.785156 -2.648438 1.921875 -4.296875 L 2.640625 -13.5 L 0.75 -13.5 C 0.4375 -14.539062 0.601562 -15.273438 1.25 -15.703125 L 2.828125 -15.703125 L 2.953125 -17.421875 C 3.015625 -18.085938 3.378906 -18.632812 4.046875 -19.0625 C 4.710938 -19.5 5.539062 -19.800781 6.53125 -19.96875 C 7.53125 -20.132812 8.546875 -20.144531 9.578125 -20 Z M 9.265625 -15.703125 "/></g></g></g><g clip-path="url(#3fcb6a2802)"><g fill="#ff914d" fill-opacity="1"><g transform="translate(153.350689, 34.423193)"><g><path d="M 9.828125 -16.234375 C 11.367188 -16.234375 12.722656 -16.023438 13.890625 -15.609375 C 15.066406 -15.203125 15.945312 -14.566406 16.53125 -13.703125 C 17.125 -12.835938 17.304688 -11.710938 17.078125 -10.328125 C 16.929688 -9.492188 16.535156 -8.800781 15.890625 -8.25 C 15.253906 -7.707031 14.460938 -7.3125 13.515625 -7.0625 C 12.578125 -6.8125 11.578125 -6.707031 10.515625 -6.75 C 9.453125 -6.789062 8.414062 -6.976562 7.40625 -7.3125 C 7.570312 -6.5625 7.921875 -5.945312 8.453125 -5.46875 C 8.992188 -5 9.742188 -4.691406 10.703125 -4.546875 C 11.535156 -4.398438 12.332031 -4.4375 13.09375 -4.65625 C 13.863281 -4.875 14.535156 -5.195312 15.109375 -5.625 C 15.691406 -6.0625 16.117188 -6.519531 16.390625 -7 C 16.640625 -5.832031 16.609375 -4.769531 16.296875 -3.8125 C 15.984375 -2.863281 15.441406 -2.050781 14.671875 -1.375 C 13.910156 -0.707031 12.988281 -0.210938 11.90625 0.109375 C 10.832031 0.429688 9.65625 0.5625 8.375 0.5 C 5.71875 0.351562 3.734375 -0.503906 2.421875 -2.078125 C 1.117188 -3.660156 0.570312 -5.800781 0.78125 -8.5 C 0.96875 -10.863281 1.832031 -12.742188 3.375 -14.140625 C 4.914062 -15.535156 7.066406 -16.234375 9.828125 -16.234375 Z M 10.203125 -15.0625 C 9.347656 -15 8.796875 -14.492188 8.546875 -13.546875 C 8.304688 -12.609375 8.113281 -11.117188 7.96875 -9.078125 C 7.945312 -8.671875 7.945312 -8.34375 7.96875 -8.09375 C 8.851562 -8.03125 9.476562 -8.203125 9.84375 -8.609375 C 10.207031 -9.023438 10.429688 -9.722656 10.515625 -10.703125 L 10.796875 -14.4375 C 10.816406 -14.726562 10.757812 -14.910156 10.625 -14.984375 C 10.488281 -15.054688 10.347656 -15.082031 10.203125 -15.0625 Z M 10.203125 -15.0625 "/></g></g></g></g></svg>